FILE "Can Can Bunny Extra DX (1996)(NEC Home Electronics)(JP)[FXNKT601][FXNKT702].img" BINARY
  TRACK 01 AUDIO
    INDEX 01 00:00:00
  TRACK 02 MODE1/2352
    PREGAP 00:03:00
    INDEX 01 00:36:11
  TRACK 03 MODE1/2352
    INDEX 01 00:41:22
  TRACK 04 AUDIO
    PREGAP 00:02:00
    INDEX 01 62:01:23
  TRACK 05 AUDIO
    INDEX 01 64:35:19
  TRACK 06 AUDIO
    INDEX 01 67:17:23
  TRACK 07 AUDIO
    INDEX 01 68:42:32
